<svg xmlns="http://www.w3.org/2000/svg" viewBox="0 0 128 128"><title>128 by 128</title><path d="M41.58,103.75a3.52,3.52,0,1,1,5-5l10.9,10.9L85.32,81.81a3.52,3.52,0,0,1,5,5L60,117.14a3.51,3.51,0,0,1-2.49,1,3.57,3.57,0,0,1-2.49-1Z" fill="#1a1a1a"/><path d="M1.53,63.7a3.54,3.54,0,0,1,0-5L49.38,10.86a3.53,3.53,0,0,1,2.49-1H89.21a3.53,3.53,0,0,1,2.49,1l34.77,34.78a3.52,3.52,0,0,1,0,5L99.81,77.27a3.52,3.52,0,1,1-5-5L116.09,51a4.12,4.12,0,0,0,0-5.83L91.23,20.35a4.13,4.13,0,0,0-5.84,0L73.81,31.93a4.64,4.64,0,0,1-6.54,0L55.69,20.35a4.13,4.13,0,0,0-5.84,0L11.91,58.29a4.12,4.12,0,0,0,0,5.83L37,89.25a3.52,3.52,0,0,1-5,5Z" fill="#ec2227"/><path d="M51.91,36.13a3.52,3.52,0,0,1,5-5L87.52,61.78a3.52,3.52,0,0,1-5,5Z" fill="#ec2227"/><path d="M25,63.06a3.52,3.52,0,0,1,5-5L60.58,88.71a3.53,3.53,0,0,1,0,5,3.52,3.52,0,0,1-5,0Z" fill="#ec2227"/><path d="M69.33,71,61,62.63a11.33,11.33,0,1,0-4.49,4.49l8.38,8.39A3.17,3.17,0,1,0,69.33,71ZM45.5,62.7a7.79,7.79,0,1,1,11,0A7.8,7.8,0,0,1,45.5,62.7Z" fill="#1a1a1a"/><path d="M51.68,51.31a5.92,5.92,0,1,0,0,11.76,5.92,5.92,0,0,1,0-11.76Z" fill="#1a1a1a"/></svg>