<svg xmlns="http://www.w3.org/2000/svg" viewBox="0 0 998 175.54"><defs><style>.cls-1{fill:#4f5c7c;}.cls-2{fill:#131e42;}</style></defs><title>logo-with-text</title><g id="Layer_2" data-name="Layer 2"><g id="Layer_1-2" data-name="Layer 1"><polygon class="cls-1" points="151.53 4.69 115.54 66.44 115.54 107.7 173.86 7.63 151.53 4.69"/><polygon class="cls-1" points="115.95 0 115.54 0.06 115.54 39.86 137.14 2.79 115.95 0"/><polygon class="cls-1" points="231.91 15.16 188.25 9.53 115.54 134.28 115.54 175.54 205.6 20.97 231.91 15.16"/><polygon class="cls-2" points="115.54 175.54 115.54 134.28 103.57 154.81 115.54 175.54"/><polygon class="cls-2" points="95.86 141.46 115.54 107.7 115.54 66.44 83.89 120.73 95.86 141.46"/><polygon class="cls-2" points="114.62 0.17 64.21 86.65 76.18 107.38 115.54 39.86 115.54 0.06 114.62 0.17"/><polygon class="cls-2" points="71.78 5.82 44.53 52.56 56.5 73.29 97.83 2.39 71.78 5.82"/><polygon class="cls-2" points="0 15.16 26.29 20.96 26.29 20.96 36.83 39.21 55 8.04 0 15.16"/><path class="cls-2" d="M308.22,96.75c-1.11,7-2.13,14.09-3.24,21.19h-.41c-1.42-7.1-2.94-14.3-4.36-21.19L292,63.29H281.86l-8.21,33.46c-1.42,7-2.94,14.19-4.26,21.19H269c-1.11-7-2.23-14.09-3.34-21.19L260,63.29H247.79L261,129.6h14.39l8-34.88c1.12-5.17,2-10.24,2.94-15.31h.41c.91,5.07,1.82,10.14,2.94,15.31l8.21,34.88h14.6l12.78-66.31H313.9Z"/><path class="cls-2" d="M356.28,63.29H334V129.6h11.76V105.27h10.55c14.19,0,25.14-6.8,25.14-21.5C381.42,68.36,370.77,63.29,356.28,63.29Zm-1,32.55h-9.53V72.72h9.53c9.63,0,14.6,2.74,14.6,11C369.86,91.88,365.2,95.84,355.26,95.84Z"/><path class="cls-2" d="M468.11,96.75c-1.11,7-2.13,14.09-3.24,21.19h-.41c-1.42-7.1-2.94-14.3-4.36-21.19l-8.21-33.46H441.75l-8.21,33.46c-1.42,7-2.94,14.19-4.26,21.19h-.41c-1.11-7-2.23-14.09-3.34-21.19l-5.68-33.46H407.68l13.18,66.31h14.4l8-34.88c1.12-5.17,2-10.24,2.94-15.31h.41c.91,5.07,1.82,10.14,2.94,15.31l8.21,34.88h14.6l12.77-66.31H473.79Z"/><path class="cls-2" d="M519.83,78.6c-6.79,0-11.76,3.55-15.91,7.5l.4-9.63V58H492.66V129.6h11.66V94.82c4.16-4,7-6.18,11.36-6.18,5.47,0,7.8,3,7.8,11.25V129.6h11.66V98.37C535.14,85.8,530.48,78.6,519.83,78.6Z"/><path class="cls-2" d="M553.15,57.82c-4.16,0-7.2,2.73-7.2,6.69s3,6.59,7.2,6.59,7.19-2.74,7.19-6.59S557.3,57.82,553.15,57.82Z"/><rect class="cls-2" x="547.26" y="79.82" width="11.66" height="49.78"/><path class="cls-2" d="M592,121.49c-4.77,0-7-2.84-7-8.72V89.05h12.67V79.82H585V66.23h-9.73l-1.42,13.59-7.71.51v8.72h7.1v23.72c0,10.75,4.26,18,15.82,18A31.63,31.63,0,0,0,599.2,129l-2-8.62A14.26,14.26,0,0,1,592,121.49Z"/><path class="cls-2" d="M624.87,78.6c-11.66,0-22.91,9.94-22.91,26.16,0,16.43,10.74,26.06,24.53,26.06a31.32,31.32,0,0,0,17-5.38l-3.95-7.3A20.73,20.73,0,0,1,628,121.79c-8,0-13.69-5.07-14.7-14.09h31.63a24.63,24.63,0,0,0,.51-5.47C645.45,88.34,638.35,78.6,624.87,78.6Zm-11.66,21.7c1-8.31,6.08-12.67,12-12.67,6.8,0,10.14,4.76,10.14,12.67Z"/><path class="cls-2" d="M685.93,93.2,677,89.45c-5.48-2.23-10.55-4.16-10.55-9.33,0-4.86,4.06-7.8,10.35-7.8,5.67,0,10.24,2.13,14.39,5.67l6.09-7.5a29.34,29.34,0,0,0-20.48-8.41c-12.88,0-22.21,8.11-22.21,18.65,0,9.73,6.8,14.91,13.39,17.64l9,4c6.08,2.53,10.34,4.25,10.34,9.73,0,5.17-4.16,8.52-11.56,8.52-6.18,0-12.57-3-17.34-7.51l-6.79,8a34.11,34.11,0,0,0,23.83,9.74c14.9,0,23.82-8.92,23.82-19.67C699.31,101.52,693.84,96.55,685.93,93.2Z"/><path class="cls-2" d="M728.93,78.6c-11.66,0-22.91,9.94-22.91,26.16,0,16.43,10.75,26.06,24.53,26.06a31.38,31.38,0,0,0,17-5.38l-4-7.3a20.73,20.73,0,0,1-11.55,3.65c-8,0-13.69-5.07-14.71-14.09H749a25.25,25.25,0,0,0,.51-5.47C749.52,88.34,742.42,78.6,728.93,78.6Zm-11.66,21.7c1-8.31,6.09-12.67,12-12.67,6.79,0,10.14,4.76,10.14,12.67Z"/><path class="cls-2" d="M781.39,121.29c-7.8,0-13.28-6.59-13.28-16.53s5.58-16.63,13.59-16.63c3.14,0,5.78,1.32,8.41,3.65l5.58-7.4a20.56,20.56,0,0,0-14.6-5.78c-13.28,0-24.94,9.53-24.94,26.16s10.44,26.06,24,26.06a24.9,24.9,0,0,0,16.32-6.39l-4.86-7.4C788.9,119.26,785.45,121.29,781.39,121.29Z"/><path class="cls-2" d="M833.83,113.89c-3.86,4.86-6.7,6.89-11.06,6.89-5.37,0-7.8-3-7.8-11.25V79.82H803.31v31.23c0,12.57,4.66,19.77,15.31,19.77,6.89,0,11.66-3.35,16-8.52h.4l.81,7.3h9.63V79.82H833.83Z"/><path class="cls-2" d="M869,88.64h-.41l-.81-8.82h-9.63V129.6h11.66V99.18c3-7.5,7.81-10.24,11.76-10.24a16.44,16.44,0,0,1,5.17.81l2-10.13a12.63,12.63,0,0,0-5.68-1C877.8,78.6,872.53,82.15,869,88.64Z"/><path class="cls-2" d="M900.84,57.82c-4.16,0-7.2,2.73-7.2,6.69s3,6.59,7.2,6.59,7.2-2.74,7.2-6.59S905,57.82,900.84,57.82Z"/><rect class="cls-2" x="894.96" y="79.82" width="11.66" height="49.78"/><path class="cls-2" d="M939.69,121.49c-4.77,0-7-2.84-7-8.72V89.05h12.68V79.82H932.69V66.23H923l-1.42,13.59-7.7.51v8.72h7.09v23.72c0,10.75,4.26,18,15.82,18A31.63,31.63,0,0,0,946.89,129l-2-8.62A14.26,14.26,0,0,1,939.69,121.49Z"/><path class="cls-2" d="M986.75,79.82l-7.51,24.43c-1.21,4.46-2.53,9.43-3.75,14h-.4c-1.52-4.66-2.94-9.63-4.36-14l-8.62-24.43H950.25L969.81,129l-.91,3.14c-1.62,5-4.66,8.52-9.94,8.52a12,12,0,0,1-3.54-.71l-2.13,9.13a19.55,19.55,0,0,0,6.49,1c10.84,0,16-7,20.17-18.25l18-52Z"/></g></g></svg>