<svg xmlns="http://www.w3.org/2000/svg" viewBox="0 0 350 264.92"><defs><style>.cls-1{fill:#4f5c7c;}.cls-2{fill:#131e42;}</style></defs><title>logo</title><g id="Layer_2" data-name="Layer 2"><g id="Layer_1-2" data-name="Layer 1"><polygon class="cls-1" points="228.68 7.08 174.37 100.27 174.37 162.54 262.39 11.52 228.68 7.08"/><polygon class="cls-1" points="174.99 0 174.37 0.08 174.37 60.16 206.97 4.22 174.99 0"/><polygon class="cls-1" points="350 22.89 284.1 14.39 174.37 202.65 174.37 264.92 310.29 31.65 350 22.89"/><polygon class="cls-2" points="174.37 264.92 174.37 202.65 156.3 233.64 174.37 264.92"/><polygon class="cls-2" points="144.67 213.49 174.37 162.54 174.37 100.27 126.61 182.2 144.67 213.49"/><polygon class="cls-2" points="172.98 0.26 96.91 130.76 114.97 162.05 174.37 60.16 174.37 0.08 172.98 0.26"/><polygon class="cls-2" points="108.33 8.79 67.21 79.33 85.27 110.61 147.65 3.6 108.33 8.79"/><polygon class="cls-2" points="0 22.89 39.68 31.64 39.68 31.64 55.58 59.17 83 12.13 0 22.89"/></g></g></svg>